<svg width="192" height="192" viewBox="0 0 192 192" fill="none" xmlns="http://www.w3.org/2000/svg">
  <defs>
    <linearGradient id="gradient" x1="0%" y1="0%" x2="100%" y2="100%">
      <stop offset="0%" style="stop-color:#667eea;stop-opacity:1" />
      <stop offset="100%" style="stop-color:#ff69b4;stop-opacity:1" />
    </linearGradient>
  </defs>
  
  <!-- Background circle -->
  <circle cx="96" cy="96" r="88" fill="url(#gradient)" stroke="#fff" stroke-width="8"/>
  
  <!-- Heart shape -->
  <path d="M96 140 L76 120 C60 108 60 88 76 76 C84 68 92 68 96 76 C100 68 108 68 116 76 C132 88 132 108 116 120 Z" fill="#fff" opacity="0.9"/>
  
  <!-- Sparkles -->
  <circle cx="130" cy="60" r="4" fill="#fff" opacity="0.8"/>
  <circle cx="140" cy="80" r="3" fill="#fff" opacity="0.6"/>
  <circle cx="50" cy="70" r="3" fill="#fff" opacity="0.7"/>
  <circle cx="60" cy="130" r="4" fill="#fff" opacity="0.8"/>
  
  <!-- Stars -->
  <path d="M150 110 L152 115 L157 115 L153 118 L155 123 L150 120 L145 123 L147 118 L143 115 L148 115 Z" fill="#fff" opacity="0.6"/>
  <path d="M40 40 L42 45 L47 45 L43 48 L45 53 L40 50 L35 53 L37 48 L33 45 L38 45 Z" fill="#fff" opacity="0.7"/>
</svg>
